<?xml version="1.0" encoding="utf-8"?>
<!-- Generator: Adobe Illustrator 24.2.1, SVG Export Plug-In . SVG Version: 6.00 Build 0)  -->
<svg version="1.1" id="Layer_1" xmlns="http://www.w3.org/2000/svg" xmlns:xlink="http://www.w3.org/1999/xlink" x="0px" y="0px"
	 viewBox="0 0 560 560" style="enable-background:new 0 0 560 560;" xml:space="preserve">
<style type="text/css">
	.st0{fill:#F2F2F2;}
	.st1{fill:#808080;}
	.st2{fill:#CCCCCC;}
	.st3{fill:#FF931E;}
	.st4{font-family:'BookmanOldStyle-Bold';}
	.st5{font-size:150px;}
	.st6{letter-spacing:3;}
</style>
<g>
	<path class="st0" d="M280,556.5c-73.9,0-143.3-28.8-195.5-81S3.5,353.8,3.5,280c0-73.9,28.8-143.3,81-195.5s121.7-81,195.5-81
		c73.9,0,143.3,28.8,195.5,81s81,121.7,81,195.5c0,73.9-28.8,143.3-81,195.5S353.9,556.5,280,556.5z"/>
	<path class="st1" d="M280,6c37,0,72.9,7.2,106.7,21.5c32.6,13.8,61.9,33.6,87.1,58.7s44.9,54.5,58.7,87.1
		C546.8,207.1,554,243,554,280s-7.2,72.9-21.5,106.7c-13.8,32.6-33.6,61.9-58.7,87.1s-54.5,44.9-87.1,58.7
		C352.9,546.8,317,554,280,554s-72.9-7.2-106.7-21.5c-32.6-13.8-61.9-33.6-87.1-58.7s-44.9-54.5-58.7-87.1C13.2,352.9,6,317,6,280
		s7.2-72.9,21.5-106.7c13.8-32.6,33.6-61.9,58.7-87.1s54.5-44.9,87.1-58.7C207.1,13.2,243,6,280,6 M280,1C125.9,1,1,125.9,1,280
		s124.9,279,279,279s279-124.9,279-279S434.1,1,280,1L280,1z"/>
</g>
<g>
	<path class="st2" d="M372.6,160.2c-92.9-56.1-149.3-1.9-174.2,34.2c-22.2-17.1-78.3-48.6-130.9,17c-57.8,72-27.7,188.1,32.3,207.7
		c30.4,9.9,70.3,0,70.3,0s-5-34.9,8.7-62.7c6.6-13.4,17.5-23.4,28.4-30.7v79.5c0,0-0.4,17.6,8,18.1c11.3,0.7,15.1-16.2,15.1-16.2
		l13.8-51.2l33.7,58.7c9.2,17.9,18.3,5.8,16.3-5.7c-0.7-3.7-16.4-85.8-16.4-85.8l38.4,0.2v81.4c0,0,0.6,17.1,7.7,18.5
		c9.3,1.8,15-20.2,15-20.2l15-54l40,65.2c14.3,20.2,25.3,4,21.6-8.1c-1.4-4.7-32.6-89.9-34.8-95.9c14.7,1.1,31,4.1,42.7,11.2
		c58.4,34.9,79.8,115.3,87.2,100.9C518.7,406.2,475.5,222.4,372.6,160.2z M459.6,321.7c-3.3,0-6-4.2-6-9.4s2.7-9.4,6-9.4
		s6,4.2,6,9.4S462.9,321.7,459.6,321.7z"/>
</g>
<text transform="matrix(1 0 0 1 60.5559 277.9016)" class="st3 st4 st5 st6">STATS</text>
<text transform="matrix(1 0 0 1 159.1219 405.3)" class="st3 st4 st5 st6">115</text>
</svg>
